<svg width="24px" height="24px" viewBox="0 0 24 24" version="1.1" xmlns="http://www.w3.org/2000/svg" focusable="false">
    <g id="icon-clock">
        <path d="M12,22.725 C6.07674606,22.725 1.275,17.9232539 1.275,12 C1.275,6.07674606 6.07674606,1.275 12,1.275 C17.9232539,1.275 22.725,6.07674606 22.725,12 C22.725,17.9232539 17.9232539,22.725 12,22.725 Z M12,20.475 C16.6806133,20.475 20.475,16.6806133 20.475,12 C20.475,7.31938675 16.6806133,3.525 12,3.525 C7.31938675,3.525 3.525,7.31938675 3.525,12 C3.525,16.6806133 7.31938675,20.475 12,20.475 Z M13.125,6 L13.125,12.0825732 L16.9321403,15.3458363 C17.4038819,15.7501862 17.4585136,16.4603987 17.0541637,16.9321403 C16.6498138,17.4038819 15.9396013,17.4585136 15.4678597,17.0541637 L11.2678597,13.4541637 C11.0185081,13.2404337 10.875,12.9284155 10.875,12.6 L10.875,6 C10.875,5.37867966 11.3786797,4.875 12,4.875 C12.6213203,4.875 13.125,5.37867966 13.125,6 Z" />
    </g>
</svg>