<svg width="24px" height="24px" viewBox="0 0 24 24" version="1.1" xmlns="http://www.w3.org/2000/svg">
    <g id="icon-print">
        <path d="M19.0236351,18.930941 L19.6281,22.0060578 C19.7361,22.555422 19.3791,23 18.8231,23 L4.8241,23 C4.2721,23 3.9091,22.5625434 4.0191,22.0060578 L4.62356486,18.930941 L2.991,18.930941 C1.891,18.930941 1,18.0285595 1,16.8901549 L1,13.8503399 C1,12.723126 1.455,11.0363746 2.032,10.0587098 L3.484,7.59674451 C3.769,7.11350751 4.444,6.72284855 5,6.72284855 L5.9995,6.72284855 L5.9995,2.01484311 C5.9995,1.45436074 6.45526096,1 7.00197329,1 L16.9970267,1 C17.5506774,1 17.9995,1.4540509 17.9995,2.01484311 L17.9995,9.14122626 C17.9995,9.70170863 17.543739,10.1560694 16.9970267,10.1560694 L7.00197329,10.1560694 C6.44832258,10.1560694 5.9995,9.70201846 5.9995,9.14122626 L5.9995,8.24886012 L5,8.24886012 C4.973,8.24886012 4.785,8.35669827 4.77,8.38213179 L3.318,10.8440971 C2.884,11.580652 2.5,12.9947561 2.5,13.8503399 L2.5,16.8901549 C2.5,17.1831491 2.717,17.4049295 2.991,17.4049295 L4.92352758,17.4049295 L5.6281,13.8205318 C5.7361,13.2711676 6.2791,12.8265896 6.8261,12.8265896 L16.8211,12.8265896 C17.3751,12.8265896 17.9091,13.2640462 18.0191,13.8205318 L18.7236724,17.4049295 L21.009,17.4049295 C21.283,17.4049295 21.5,17.1831491 21.5,16.8901549 L21.5,13.8503399 C21.5,12.9947561 21.116,11.580652 20.682,10.8440971 L19.23,8.38213179 C19.215,8.35669827 19.027,8.24886012 19,8.24886012 L18,8.24886012 L18,6.72284855 L19,6.72284855 C19.556,6.72284855 20.231,7.11350751 20.516,7.59674451 L21.968,10.0587098 C22.545,11.0363746 23,12.723126 23,13.8503399 L23,16.8901549 C23,18.0285595 22.109,18.930941 21.009,18.930941 L19.0236351,18.930941 Z M5.6531,21.4739884 L17.9941,21.4739884 L16.5941,14.3526012 L7.0531,14.3526012 L5.6531,21.4739884 Z M7.5,8.63000488 L16.5,8.63000488 L16.5,2.5300293 L7.5,2.5300293 L7.5,8.63000488 Z M9.4721,17.9132948 C9.1961,17.9132948 8.9721,17.6854104 8.9721,17.4046243 C8.9721,17.1238382 9.1961,16.8959538 9.4721,16.8959538 L14.0061,16.8959538 C14.2821,16.8959538 14.5061,17.1238382 14.5061,17.4046243 C14.5061,17.6854104 14.2821,17.9132948 14.0061,17.9132948 L9.4721,17.9132948 Z M15.5161,18.9306358 C15.7921,18.9306358 16.0161,19.1585202 16.0161,19.4393064 C16.0161,19.7200925 15.7921,19.9479769 15.5161,19.9479769 L7.9591,19.9479769 C7.6831,19.9479769 7.4591,19.7200925 7.4591,19.4393064 C7.4591,19.1585202 7.6831,18.9306358 7.9591,18.9306358 L15.5161,18.9306358 Z" />
    </g>
</svg>