<svg width="24px" height="24px" viewBox="0 0 24 24" version="1.1" xmlns="http://www.w3.org/2000/svg">
    <g id="icon-visa">
        <path d="M1,22.5533267 L1,21.63666 L21.6248533,21.63666 L21.6248533,22.5533267 L1,22.5533267 Z M21.71696,1.37818 C21.9460533,1.60727333 22.0836267,1.92818 22.0836267,2.29484667 C22.0836267,2.66151333 21.9460533,2.98242 21.71696,3.21151333 L20.15848,4.76999333 C20.2502933,4.95332667 20.2502933,5.22818 20.20424,5.45756667 C20.11272,5.82423333 19.9293867,6.1909 19.60848,6.51151333 L19.05848,7.06151333 L20.2502933,8.25332667 L14.5666667,13.8909 L13.9251467,13.2490867 L18.9666667,8.25332667 L18.41696,7.70332667 L6.95848,19.1615133 L2.00848,21.08666 L3.93333333,16.13666 L16.5836267,3.48666 C17.0875733,2.98242 17.8209067,2.75332667 18.3251467,2.93666 L19.8836267,1.37818 C20.3875733,0.87394 21.21272,0.87394 21.71696,1.37818 Z M19.2875733,5.22818 C19.3333333,5.0909 19.2875733,4.99908667 19.2418133,4.95332667 L18.0502933,3.76151333 C18.00424,3.71575333 17.95848,3.71575333 17.91272,3.71575333 C17.7751467,3.71575333 17.45424,3.80727333 17.2251467,4.08242 L4.71272,16.6406067 L3.61272,19.48242 L6.45424,18.38242 L18.9666667,5.82423333 C19.1502933,5.64060667 19.2875733,5.45756667 19.2875733,5.22818 Z M21.0751467,2.56999333 C21.1209067,2.47818 21.1666667,2.38666 21.1666667,2.29484667 C21.1666667,2.20332667 21.1209067,2.11151333 21.0751467,2.01999333 C20.9375733,1.88242 20.66272,1.88242 20.5251467,2.01999333 L19.05848,3.48666 L19.60848,4.03666 L21.0751467,2.56999333 Z" />
    </g>
</svg>