<svg width="24px" height="24px" viewBox="0 0 24 24" version="1.1" xmlns="http://www.w3.org/2000/svg">
    <g id="icon-repeat">
        <path d="M21.9274247,4.48353425 C22.2113151,4.19964384 22.6986301,4.4009589 22.6986301,4.80358904 L22.6986301,8.68493151 C22.6986301,8.93446575 22.4961096,9.1369863 22.2465753,9.1369863 L18.3652329,9.1369863 C17.9626027,9.1369863 17.7612877,8.64967123 18.0451781,8.36578082 L19.4495616,6.96139726 C17.8001644,4.4069863 14.9371507,2.80821918 11.8493151,2.80821918 C7.14161644,2.80821918 3.27323288,6.34238356 2.85071233,11.0265753 C2.80821918,11.4961096 2.41372603,11.8493151 1.95112329,11.8493151 C1.924,11.8493151 1.8959726,11.8481096 1.86884932,11.8456986 C1.37189041,11.8010959 1.00482192,11.3607945 1.04942466,10.8638356 C1.55693151,5.24027397 6.19983562,1 11.8493151,1 C15.4220548,1 18.7443562,2.78350685 20.7514795,5.65947945 L21.9274247,4.48353425 Z M21.8297808,11.8529315 C22.3267397,11.8975342 22.6938082,12.3378356 22.6492055,12.8347945 C22.1416986,18.4583562 17.4987945,22.6986301 11.8493151,22.6986301 C8.28712329,22.6986301 4.95547945,20.9127123 2.94594521,18.0403562 L1.77120548,19.2150959 C1.48731507,19.5001918 1,19.2988767 1,18.8962466 L1,15.0149041 C1,14.7653699 1.20252055,14.5628493 1.45205479,14.5628493 L5.33339726,14.5628493 C5.7360274,14.5628493 5.93734247,15.0489589 5.65254795,15.3337534 L4.25268493,16.7336164 C5.90208219,19.2871233 8.76961644,20.890411 11.8493151,20.890411 C16.5570137,20.890411 20.4253973,17.3562466 20.8479178,12.6720548 C20.8928219,12.1741918 21.3364384,11.8047123 21.8297808,11.8529315 Z" />
    </g>
</svg>