<svg width="16px" height="16px" viewBox="0 0 16 16" version="1.1" xmlns="http://www.w3.org/2000/svg">
    <g id="AccountClosed" fill="#D91E00">
        <g transform="translate(-321.000000, -973.000000)">
            <g transform="translate(106.000000, 105.984375)">
                <g transform="translate(36.000000, 189.000000)">
                    <path d="M187,679.75 C187.828129,679.75 188.607418,679.906248 189.337891,680.21875 C190.068363,680.531252 190.705075,680.958982 191.248047,681.501953 C191.791018,682.044925 192.218748,682.681637 192.53125,683.412109 C192.843752,684.142582 193,684.921871 193,685.75 C193,686.578129 192.843752,687.357418 192.53125,688.087891 C192.218748,688.818363 191.791018,689.455075 191.248047,689.998047 C190.705075,690.541018 190.068363,690.968748 189.337891,691.28125 C188.607418,691.593752 187.828129,691.75 187,691.75 C186.171871,691.75 185.392582,691.593752 184.662109,691.28125 C183.931637,690.968748 183.294925,690.541018 182.751953,689.998047 C182.208982,689.455075 181.781252,688.818363 181.46875,688.087891 C181.156248,687.357418 181,686.578129 181,685.75 C181,684.921871 181.156248,684.142582 181.46875,683.412109 C181.781252,682.681637 182.208982,682.044925 182.751953,681.501953 C183.294925,680.958982 183.931637,680.531252 184.662109,680.21875 C185.392582,679.906248 186.171871,679.75 187,679.75 Z M187,690.25 C187.625003,690.25 188.208982,690.132814 188.751953,689.898438 C189.294925,689.664061 189.771482,689.341799 190.181641,688.931641 C190.591799,688.521482 190.914061,688.044925 191.148438,687.501953 C191.382814,686.958982 191.5,686.375003 191.5,685.75 C191.5,685.124997 191.382814,684.541018 191.148438,683.998047 C190.914061,683.455075 190.591799,682.978518 190.181641,682.568359 C189.771482,682.158201 189.294925,681.835939 188.751953,681.601562 C188.208982,681.367186 187.625003,681.25 187,681.25 C186.374997,681.25 185.791018,681.367186 185.248047,681.601562 C184.705075,681.835939 184.228518,682.158201 183.818359,682.568359 C183.408201,682.978518 183.085939,683.455075 182.851562,683.998047 C182.617186,684.541018 182.5,685.124997 182.5,685.75 C182.5,686.375003 182.617186,686.958982 182.851562,687.501953 C183.085939,688.044925 183.408201,688.521482 183.818359,688.931641 C184.228518,689.341799 184.705075,689.664061 185.248047,689.898438 C185.791018,690.132814 186.374997,690.25 187,690.25 Z M184,685 L190,685 L190,686.5 L184,686.5 L184,685 Z" />
                </g>
            </g>
        </g>
    </g>
</svg>