<svg width="24px" height="24px" viewBox="0 0 24 24" version="1.1" xmlns="http://www.w3.org/2000/svg">
    <g id="icon-sign">
        <path d="M13.8764325,23 L12.3897544,23 C12.3086988,23 12.231456,22.9664573 12.176807,22.9068566 C12.1222992,22.8478103 12.0963163,22.7688047 12.1040829,22.6897991 L12.2513668,21.2668668 C12.2580038,21.2018604 12.2882231,21.1407351 12.3356703,21.0947178 L15.9179318,17.6474404 C15.6757535,17.2072268 15.5615131,16.7112935 15.5615131,16.1091877 C15.5615131,14.2862376 17.0729033,12.8027344 18.9302623,12.8027344 C20.788045,12.8027344 22.3,14.2862376 22.3,16.1091877 C22.3,17.9332466 20.788045,19.4163341 18.9302623,19.4163341 C18.4574852,19.4163341 18.0697175,19.3800192 17.6698056,19.2164638 L16.8865036,19.9160098 L16.8219698,20.8012882 C16.812085,20.9436369 16.6940319,21.0567396 16.5488662,21.0622839 L15.7391576,21.0990146 L15.5654671,21.8559436 C15.5394841,21.9686305 15.4468491,22.0541506 15.3309142,22.0720308 L14.6088982,22.185688 L14.1097144,22.8809372 C14.05676,22.9550916 13.9696323,23 13.8764325,23 Z M3.375,2.71875 L3.375,16.625 L2,16.625 L2,2.71875 C2,2.24609139 2.16829259,1.84147304 2.50488281,1.50488281 C2.84147304,1.16829259 3.24609139,1 3.71875,1 L14.375,1 C14.5325529,1 14.7581366,1.05012971 15.0517578,1.15039062 C15.3453791,1.25065154 15.7714816,1.50130008 16.3300781,1.90234375 C16.6595069,2.14583455 17.0068341,2.42870933 17.3720703,2.75097656 C17.7373065,3.0732438 18.1061179,3.41340967 18.4785156,3.77148438 C18.8365903,4.14388207 19.1767562,4.51269349 19.4990234,4.87792969 C19.8212907,5.24316589 20.1041654,5.59049314 20.3476562,5.91992188 C20.7486999,6.47851842 20.9993485,6.90462093 21.0996094,7.19824219 C21.1998703,7.49186345 21.25,7.71744713 21.25,7.875 L21.25,11.3125 C21.25,11.4986988 21.1819668,11.65983 21.0458984,11.7958984 C20.90983,11.9319668 20.7486988,12 20.5625,12 C20.3763012,12 20.21517,11.9319668 20.0791016,11.7958984 C19.9430332,11.65983 19.875,11.4986988 19.875,11.3125 L19.875,7.875 L15.0625,7.875 C14.8763012,7.875 14.71517,7.80696683 14.5791016,7.67089844 C14.4430332,7.53483005 14.375,7.37369885 14.375,7.1875 L14.375,2.375 L12.7099609,2.375 L9.046875,2.375 L5.38378906,2.375 L3.71875,2.375 C3.61848908,2.375 3.53613313,2.40722624 3.47167969,2.47167969 C3.40722624,2.53613313 3.375,2.61848908 3.375,2.71875 Z M3.375,21.28125 C3.375,21.3815109 3.40722624,21.4638669 3.47167969,21.5283203 C3.53613313,21.5927738 3.61848908,21.625 3.71875,21.625 L9.3125,21.625 C9.49869885,21.625 9.65983005,21.6930332 9.79589844,21.8291016 C9.93196683,21.96517 10,22.1263012 10,22.3125 C10,22.4986988 9.93196683,22.65983 9.79589844,22.7958984 C9.65983005,22.9319668 9.49869885,23 9.3125,23 L3.71875,23 C3.24609139,23 2.84147304,22.8317074 2.50488281,22.4951172 C2.16829259,22.158527 2,21.7539086 2,21.28125 L2,16.625 L3.375,16.625 L3.375,21.28125 Z M19.0585938,6.5 C18.8723949,6.2565092 18.6468112,5.9879572 18.3818359,5.69433594 C18.1168607,5.40071468 17.8196631,5.08919436 17.4902344,4.75976562 C17.1608056,4.43033689 16.8492853,4.13313935 16.5556641,3.86816406 C16.2620428,3.60318878 15.9934908,3.3776051 15.75,3.19140625 L15.75,6.5 L19.0585938,6.5 Z M19.6329323,16.3263838 C20.2011687,16.3263838 20.663355,15.8720323 20.6639198,15.3144192 C20.6639198,14.7566674 20.2011687,14.303009 19.6329323,14.303009 C19.0642723,14.303009 18.6019448,14.7566674 18.6019448,15.3144192 C18.6019448,15.8714779 19.0642723,16.3263838 19.6329323,16.3263838 Z" />
    </g>
</svg>