<svg width="24px" height="24px" viewBox="0 0 24 24" version="1.1" xmlns="http://www.w3.org/2000/svg">
    <g id="icon-history">
        <path d="M20.3476562,5.91992188 C20.1041654,5.59049314 19.8212907,5.24316589 19.4990234,4.87792969 C19.1767562,4.51269349 18.8365903,4.14388207 18.4785156,3.77148438 C18.1061179,3.41340967 17.7373065,3.0732438 17.3720703,2.75097656 C17.0068341,2.42870933 16.6595069,2.14583455 16.3300781,1.90234375 C15.7714816,1.50130008 15.3453791,1.25065154 15.0517578,1.15039062 C14.7581366,1.05012971 14.5325529,1 14.375,1 L3.71875,1 C3.24609139,1 2.84147304,1.16829259 2.50488281,1.50488281 C2.16829259,1.84147304 2,2.24609139 2,2.71875 L2,21.28125 C2,21.7539086 2.16829259,22.158527 2.50488281,22.4951172 C2.84147304,22.8317074 3.24609139,23 3.71875,23 L10.9375,23 C11.1236988,23 11.28483,22.9319668 11.4208984,22.7958984 C11.5569668,22.65983 11.625,22.4986988 11.625,22.3125 C11.625,22.1263012 11.5569668,21.96517 11.4208984,21.8291016 C11.28483,21.6930332 11.1236988,21.625 10.9375,21.625 L3.71875,21.625 C3.61848908,21.625 3.53613313,21.5927738 3.47167969,21.5283203 C3.40722624,21.4638669 3.375,21.3815109 3.375,21.28125 L3.375,2.71875 C3.375,2.61848908 3.40722624,2.53613313 3.47167969,2.47167969 C3.53613313,2.40722624 3.61848908,2.375 3.71875,2.375 L5.38378906,2.375 L9.046875,2.375 L12.7099609,2.375 L14.375,2.375 L14.375,7.1875 C14.375,7.37369885 14.4430332,7.53483005 14.5791016,7.67089844 C14.71517,7.80696683 14.8763012,7.875 15.0625,7.875 L19.875,7.875 L19.875,11.3125 C19.875,11.4986988 19.9430332,11.65983 20.0791016,11.7958984 C20.21517,11.9319668 20.3763012,12 20.5625,12 C20.7486988,12 20.90983,11.9319668 21.0458984,11.7958984 C21.1819668,11.65983 21.25,11.4986988 21.25,11.3125 L21.25,7.875 C21.25,7.71744713 21.1998703,7.49186345 21.0996094,7.19824219 C20.9993485,6.90462093 20.7486999,6.47851842 20.3476562,5.91992188 L20.3476562,5.91992188 L20.3476562,5.91992188 Z M15.75,6.5 L15.75,3.19140625 C15.9934908,3.3776051 16.2620428,3.60318878 16.5556641,3.86816406 C16.8492853,4.13313935 17.1608056,4.43033689 17.4902344,4.75976562 C17.8196631,5.08919436 18.1168607,5.40071468 18.3818359,5.69433594 C18.6468112,5.9879572 18.8723949,6.2565092 19.0585938,6.5 L15.75,6.5 Z M21.8430753,17.0517578 C21.8430753,18.0673879 21.5934033,18.9983682 21.0940518,19.8447266 C20.5947004,20.6995485 19.9176238,21.3766251 19.0628018,21.8759766 C18.2079799,22.375328 17.2769996,22.625 16.2698331,22.625 C15.254203,22.625 14.3232227,22.375328 13.4768643,21.8759766 C12.6220424,21.3766251 11.9449658,20.6995485 11.4456143,19.8447266 C10.9462629,18.9983682 10.6965909,18.0673879 10.6965909,17.0517578 C10.6965909,16.0445913 10.9462629,15.113611 11.4456143,14.2587891 C11.9449658,13.4039671 12.6220424,12.7268905 13.4768643,12.2275391 C14.3232227,11.7281876 15.254203,11.4785156 16.2698331,11.4785156 C17.2769996,11.4785156 18.2079799,11.7281876 19.0628018,12.2275391 C19.9176238,12.7268905 20.5947004,13.4039671 21.0940518,14.2587891 C21.5934033,15.113611 21.8430753,16.0445913 21.8430753,17.0517578 Z M20.2180753,17.0517578 C20.2180753,16.3408168 20.0403427,15.6806671 19.6848722,15.0712891 C19.3294016,14.4703746 18.8512163,13.9921893 18.2503018,13.6367188 C17.6409238,13.2812482 16.9807742,13.1035156 16.2698331,13.1035156 C15.5504285,13.1035156 14.8902788,13.2812482 14.2893643,13.6367188 C13.6799863,13.9921893 13.201801,14.4703746 12.854794,15.0712891 C12.4993235,15.6806671 12.3215909,16.3408168 12.3215909,17.0517578 C12.3215909,17.7711625 12.4993235,18.4313121 12.854794,19.0322266 C13.201801,19.6416046 13.6799863,20.1197899 14.2893643,20.4667969 C14.8902788,20.8222674 15.5504285,21 16.2698331,21 C16.9807742,21 17.6409238,20.8222674 18.2503018,20.4667969 C18.8512163,20.1197899 19.3294016,19.6416046 19.6848722,19.0322266 C20.0403427,18.4313121 20.2180753,17.7711625 20.2180753,17.0517578 Z M17.1965909,14.5 L17.1965909,17.75 C17.1965909,17.8177087 17.1754323,17.8727211 17.1331143,17.9150391 C17.0907964,17.957357 17.035784,17.9785156 16.9680753,17.9785156 L14.6448331,17.9785156 C14.5771244,17.9785156 14.522112,17.957357 14.479794,17.9150391 C14.4374761,17.8727211 14.4163175,17.8177087 14.4163175,17.75 L14.4163175,17.2802734 C14.4163175,17.2125648 14.4374761,17.1575523 14.479794,17.1152344 C14.522112,17.0729165 14.5771244,17.0517578 14.6448331,17.0517578 L16.2698331,17.0517578 L16.2698331,14.5 C16.2698331,14.4322913 16.2909917,14.3772789 16.3333097,14.3349609 C16.3756276,14.292643 16.4306401,14.2714844 16.4983487,14.2714844 L16.9680753,14.2714844 C17.035784,14.2714844 17.0907964,14.292643 17.1331143,14.3349609 C17.1754323,14.3772789 17.1965909,14.4322913 17.1965909,14.5 Z" />
    </g>
</svg>