<svg width="24px" height="24px" viewBox="0 0 24 24" version="1.1" xmlns="http://www.w3.org/2000/svg">
    <g id="icon-save">
        <path d="M19,21.7 L21.008845,21.7 C21.3915539,21.7 21.7,21.3913616 21.7,21.008845 L21.7,2.991155 C21.7,2.60872071 21.3907955,2.3 21.0069673,2.3 L19,2.3 L19,4.14704047 L19,5.99408095 C19,7.10191945 18.1125667,8 17.000385,8 L12.9970707,8 L7.00585866,8 C5.89805351,8 5,7.11344516 5,5.99408095 L5,2.85555157 L2.3,5.55128668 L2.3,21.0062637 C2.3,21.3901176 2.60954647,21.7 2.991155,21.7 L5,21.7 L5,15.9973917 C5,14.8958578 5.89805351,14 7.00585866,14 L16.9941413,14 C18.1029399,14 19,14.8942627 19,15.9973917 L19,21.7 Z M9,2.3 L6.3,2.3 L6.3,5.99408095 C6.3,6.39034328 6.61088125,6.7 7.00585866,6.7 L9,6.7 L9,2.3 Z M12.0092773,1 L21.0069673,1 C22.1076889,1 23,1.88967395 23,2.991155 L23,21.008845 C23,22.1085295 22.1103261,23 21.008845,23 L2.991155,23 C1.89147046,23 1,22.1079825 1,21.0062637 L1,5.01220703 L5,1.01852538 L5,1 L12.0092773,1 Z M17.7,21.7 L17.7,15.9973917 C17.7,15.613025 17.3857556,15.3 16.9941413,15.3 L7.00585866,15.3 C6.61550827,15.3 6.3,15.6143498 6.3,15.9973917 L6.3,21.7 L17.7,21.7 Z M8,17 L16,17 L16,18.3 L8,18.3 L8,17 Z M8,19 L16,19 L16,20.3 L8,20.3 L8,19 Z" />
    </g>
</svg>