<svg width="24px" height="24px" viewBox="0 0 24 24" version="1.1" xmlns="http://www.w3.org/2000/svg">
    <g id="icon-send">
        <path d="M6.31993103,12.7268286 C6.45425542,12.6616184 6.60635381,12.625 6.76891479,12.625 L8.59108521,12.625 C9.14829346,12.625 9.6,13.0688648 9.6,13.625 C9.6,14.1772847 9.15950317,14.625 8.59108521,14.625 L6.76891479,14.625 C6.60761304,14.625 6.45515231,14.5878042 6.31993103,14.5214566 L6.31993103,17 L6.3172043,17 L6.3172043,21.28125 C6.3172043,21.3815109 6.34908402,21.4638669 6.41284442,21.5283203 C6.47660482,21.5927738 6.55807522,21.625 6.65725806,21.625 L22.2997312,21.625 C22.398914,21.625 22.4803844,21.5927738 22.5441448,21.5283203 C22.6079052,21.4638669 22.6397849,21.3815109 22.6397849,21.28125 L22.6397849,7.875 L17.8790323,7.875 C17.6948355,7.875 17.5354369,7.80696683 17.4008317,7.67089844 C17.2662264,7.53483005 17.1989247,7.37369885 17.1989247,7.1875 L17.1989247,2.375 L15.5517893,2.375 L11.9280914,2.375 L8.30439348,2.375 L6.65725806,2.375 C6.55807522,2.375 6.47660482,2.40722624 6.41284442,2.47167969 C6.34908402,2.53613313 6.3172043,2.61848908 6.3172043,2.71875 L6.3172043,5 L6.31993103,5 L6.31993103,6.625 L8.60878944,6.625 C9.15621992,6.625 9.6,7.06886482 9.6,7.625 C9.6,8.17728475 9.14984822,8.625 8.60878944,8.625 L6.31993103,8.625 L6.31993103,9.625 L8.60844086,9.625 C9.15606385,9.625 9.6,10.0688648 9.6,10.625 C9.6,11.1772847 9.15908203,11.625 8.60844086,11.625 L6.31993103,11.625 L6.31993103,12.7268286 Z M6.3172043,12.7281575 L6.3172043,11.625 L5,11.625 L5,17 L6.3172043,17 L6.3172043,14.5201136 C5.9867893,14.3567542 5.76,14.019061 5.76,13.625 C5.76,13.231732 5.98335405,12.8914861 6.3172043,12.7281575 Z M5,9.625 L5,8.625 L0.991210556,8.625 C0.443780082,8.625 0,8.18113518 0,7.625 C0,7.07271525 0.450151777,6.625 0.991210556,6.625 L5,6.625 L5,4.97924805 L5,2.71875 C5,2.24609139 5.16610697,1.84147304 5.49832589,1.50488281 C5.83054482,1.16829259 6.22990838,1 6.69642857,1 L17.2142857,1 C17.3697924,1 17.5924465,1.05012971 17.8822545,1.15039062 C18.1720625,1.25065154 18.5926312,1.50130008 19.1439732,1.90234375 C19.4691236,2.14583455 19.8119402,2.42870933 20.172433,2.75097656 C20.5329259,3.0732438 20.8969476,3.41340967 21.2645089,3.77148438 C21.6179333,4.14388207 21.9536814,4.51269349 22.2717634,4.87792969 C22.5898453,5.24316589 22.8690464,5.59049314 23.109375,5.91992188 C23.5052103,6.47851842 23.7526037,6.90462093 23.8515625,7.19824219 C23.9505213,7.49186345 24,7.71744713 24,7.875 L24,21.28125 C24,21.7539086 23.833893,22.158527 23.5016741,22.4951172 C23.1694552,22.8317074 22.7700916,23 22.3035714,23 L6.69642857,23 C6.22990838,23 5.83054482,22.8317074 5.49832589,22.4951172 C5.16610697,22.158527 5,21.7539086 5,21.28125 L5,17.0302124 L5,11.625 L3.87155914,11.625 C3.32393615,11.625 2.88,11.1811352 2.88,10.625 C2.88,10.0727153 3.32091797,9.625 3.87155914,9.625 L5,9.625 Z M6.3172043,9.625 L6.3172043,8.625 L5,8.625 L5,9.625 L6.3172043,9.625 Z M6.3172043,6.625 L6.3172043,5 L5,5 L5,6.625 L6.3172043,6.625 Z M20.280662,4.75976562 C19.9547755,4.43033689 19.6466048,4.13313935 19.3561408,3.86816406 C19.0656768,3.60318878 18.8000124,3.3776051 18.5591398,3.19140625 L18.5591398,6.5 L21.8321573,6.5 C21.6479605,6.2565092 21.4248025,5.9879572 21.1626764,5.69433594 C20.9005503,5.40071468 20.6065484,5.08919436 20.280662,4.75976562 Z" />
    </g>
</svg>