<svg width="16px" height="16px" viewBox="0 0 16 16" version="1.1" xmlns="http://www.w3.org/2000/svg">
    <g id="AccountBlocked" fill="#D91E00">
        <g transform="translate(-321.000000, -343.000000)">
            <g transform="translate(106.000000, 105.984375)">
                <g transform="translate(36.000000, 189.000000)">
                    <path d="M190.5,53.8378906 C190.819012,53.8378906 191.092447,53.9518218 191.320312,54.1796875 C191.548178,54.4075532 191.662109,54.680988 191.662109,55 L191.662109,60.8378906 C191.662109,61.1569026 191.548178,61.4303374 191.320312,61.6582031 C191.092447,61.8860688 190.819012,62 190.5,62 L183.5,62 C183.180988,62 182.907553,61.8860688 182.679688,61.6582031 C182.451822,61.4303374 182.337891,61.1569026 182.337891,60.8378906 L182.337891,55 C182.337891,54.680988 182.451822,54.4075532 182.679688,54.1796875 C182.907553,53.9518218 183.180988,53.8378906 183.5,53.8378906 L184.087891,53.8378906 L184.087891,52.6621094 C184.087891,52.2610657 184.163085,51.8828143 184.313477,51.5273438 C184.463868,51.1718732 184.671223,50.8642591 184.935547,50.6044922 C185.199871,50.3447253 185.509764,50.1373706 185.865234,49.9824219 C186.220705,49.8274732 186.598956,49.75 187,49.75 C187.401044,49.75 187.779295,49.8274732 188.134766,49.9824219 C188.490236,50.1373706 188.800129,50.3447253 189.064453,50.6044922 C189.328777,50.8642591 189.536132,51.1718732 189.686523,51.5273438 C189.836915,51.8828143 189.912109,52.2610657 189.912109,52.6621094 L189.912109,53.8378906 L190.5,53.8378906 Z M187,50.8574219 C186.498695,50.8574219 186.072593,51.0351545 185.72168,51.390625 C185.370766,51.7460955 185.195312,52.1699194 185.195312,52.6621094 L185.25,52.6621094 L185.25,53.8378906 L188.804688,53.8378906 L188.804688,52.6621094 C188.804688,52.1699194 188.629234,51.7460955 188.27832,51.390625 C187.927407,51.0351545 187.501305,50.8574219 187,50.8574219 Z M190.5,60.8378906 L190.5,55 L183.5,55 L183.5,60.8378906 L190.5,60.8378906 Z M187,59.0878906 C186.680988,59.0878906 186.407553,58.9739595 186.179688,58.7460938 C185.951822,58.518228 185.837891,58.240236 185.837891,57.9121094 C185.837891,57.5930974 185.951822,57.3196626 186.179688,57.0917969 C186.407553,56.8639312 186.680988,56.75 187,56.75 C187.319012,56.75 187.592447,56.8639312 187.820312,57.0917969 C188.048178,57.3196626 188.162109,57.5930974 188.162109,57.9121094 C188.162109,58.240236 188.048178,58.518228 187.820312,58.7460938 C187.592447,58.9739595 187.319012,59.0878906 187,59.0878906 Z" />
                </g>
            </g>
        </g>
    </g>
</svg>