<svg width="24px" height="24px" viewBox="0 0 24 24" version="1.1" xmlns="http://www.w3.org/2000/svg" focusable="false">
    <g id="icon-search">
        <path d="M19.8503354,4.14935354 C18.0848256,2.38353265 15.7708411,1.5 13.4559234,1.5 C11.1419389,1.5 8.82702115,2.38353265 7.06120027,4.14935354 C3.87363846,7.33691534 3.56502424,12.3120752 6.13286878,15.8483836 L1.91835582,20.0616521 C1.36054806,20.6194599 1.36054806,21.5235253 1.91835582,22.0813331 C2.19772636,22.3597703 2.56233912,22.4994556 2.92819631,22.4994556 C3.29405349,22.4994556 3.65959957,22.3597703 3.93803679,22.0813331 L8.15130534,17.8680645 C9.72859778,19.0141682 11.5917939,19.5878422 13.4559234,19.5878422 C15.7695967,19.5878422 18.0848256,18.7043095 19.8503354,16.9384886 C23.3832215,13.4059136 23.3832215,7.6806842 19.8503354,4.14935354 Z M18.4369942,15.5239031 C17.1064065,16.8544908 15.3371635,17.5874496 13.4559234,17.5874496 C11.5746832,17.5874496 9.80512913,16.8544908 8.4745414,15.5239031 C5.72812372,12.7774854 5.72812372,8.30786794 8.4745414,5.56145026 C9.80512913,4.23055143 11.5746832,3.49790376 13.4559234,3.49790376 C15.3371635,3.49790376 17.1064065,4.23055143 18.4369942,5.56145026 C19.7678931,6.89203798 20.5005407,8.66159211 20.5005407,10.5425211 C20.5005407,12.4250056 19.7678931,14.1945598 18.4369942,15.5239031 Z" />
    </g>
</svg>