<svg width="24px" height="24px" viewBox="0 0 24 24" version="1.1" xmlns="http://www.w3.org/2000/svg">
    <g id="icon-remove">
        <path d="M4.375,7.875 L4.375,21.625 C4.375,21.9973977 4.51106635,22.3196601 4.78320312,22.5917969 C5.0553399,22.8639337 5.3776023,23 5.75,23 L18.125,23 C18.4973977,23 18.8196601,22.8639337 19.0917969,22.5917969 C19.3639337,22.3196601 19.5,21.9973977 19.5,21.625 L19.5,7.875 L4.375,7.875 Z M19.84375,3.75 C20.1302098,3.75 20.3736969,3.85025941 20.5742188,4.05078125 C20.7747406,4.25130309 20.875,4.49479023 20.875,4.78125 L20.875,6.5 L3,6.5 L3,4.78125 C3,4.49479023 3.10025941,4.25130309 3.30078125,4.05078125 C3.50130309,3.85025941 3.74479023,3.75 4.03125,3.75 L8.5,3.75 L8.5,2.03125 C8.5,1.74479023 8.60025941,1.50130309 8.80078125,1.30078125 C9.00130309,1.10025941 9.24479023,1 9.53125,1 L14.34375,1 C14.6302098,1 14.8736969,1.10025941 15.0742188,1.30078125 C15.2747406,1.50130309 15.375,1.74479023 15.375,2.03125 L15.375,3.75 L19.84375,3.75 Z M8.5,20.25 L7.125,20.25 L7.125,10.625 L8.5,10.625 L8.5,20.25 Z M11.25,20.25 L9.875,20.25 L9.875,10.625 L11.25,10.625 L11.25,20.25 Z M14,20.25 L12.625,20.25 L12.625,10.625 L14,10.625 L14,20.25 Z M16.75,20.25 L15.375,20.25 L15.375,10.625 L16.75,10.625 L16.75,20.25 Z M14,3.75 L14,2.39648438 L9.875,2.39648438 L9.875,3.75 L14,3.75 Z" />
    </g>
</svg>